<svg width="18" height="14" viewBox="0 0 18 14" fill="none" xmlns="http://www.w3.org/2000/svg">
<path d="M16.7248 5.96833C17.1198 6.485 17.1198 7.1825 16.7248 7.69833C15.4807 9.3225 12.4957 12.6667 9.01067 12.6667C5.52567 12.6667 2.54067 9.3225 1.2965 7.69833C1.10432 7.45094 1 7.1466 1 6.83333C1 6.52007 1.10432 6.21572 1.2965 5.96833C2.54067 4.34417 5.52567 1 9.01067 1C12.4957 1 15.4807 4.34417 16.7248 5.96833V5.96833Z" stroke="white" stroke-width="1.5" stroke-linecap="round" stroke-linejoin="round"/>
<path d="M9.01068 9.33333C10.3914 9.33333 11.5107 8.21404 11.5107 6.83333C11.5107 5.45262 10.3914 4.33333 9.01068 4.33333C7.62997 4.33333 6.51068 5.45262 6.51068 6.83333C6.51068 8.21404 7.62997 9.33333 9.01068 9.33333Z" stroke="white" stroke-width="1.5" stroke-linecap="round" stroke-linejoin="round"/>
</svg>
